PathFileType	4	(X/Y/Z)	D:\TRACE\v60_Jaco2_6-2-23\BothDRS_Motion3_3-v60.trc
DataRate	CameraRate	NumFrames	NumMarkers	Units	OrigDataRate	OrigDataStartFrame	OrigNumFrames
100.00	100.00	      38	9	mm	100.00	1	      7000
Frame#	Time	front left toe			Front right toe			aft left toe			aft right toe			Arm			FL body			FR body			AL Body			AR Body			
		X1	Y1	Z1	X2	Y2	Z2	X3	Y3	Z3	X4	Y4	Z4	X5	Y5	Z5	X6	Y6	Z6	X7	Y7	Z7	X8	Y8	Z8	X9	Y9	Z9	

1	0.000	-208.91467	82.34573	-314.39474	224.84821	84.87747	-325.20898	-203.88350	-27.23929	299.31909	181.88327	-27.49741	291.92905	17.52686	1262.34924	-249.14212	-68.87646	657.76495	-465.48499	90.76911	656.34961	-463.14771	-77.38613	493.31369	464.45914	74.32215	483.10858	464.73102	
2	0.010	-208.90393	82.36012	-314.37970	224.90529	84.87323	-325.19876	-203.86296	-27.22075	299.36179	181.68393	-27.59964	291.84961	17.58977	1262.39099	-249.13498	-68.82330	657.77844	-465.50528	90.86554	656.30536	-463.11765	-77.37764	493.32358	464.45267	74.35249	483.12698	464.72040	
3	0.020	-208.91855	82.40018	-314.41333	224.76970	84.83744	-325.23209	-203.81444	-27.01597	298.88574	181.80219	-27.59249	291.88855	17.59887	1262.38647	-249.08348	-68.75605	657.81049	-465.51834	90.80087	656.38458	-463.13742	-77.33562	493.31958	464.42850	74.34513	483.08972	464.74023	
4	0.030	-208.89363	82.35838	-314.40195	224.76768	84.77930	-325.27347	-203.44385	-27.48929	298.66583	181.78397	-27.57101	291.91452	17.70055	1262.42773	-249.06502	-68.70992	657.83838	-465.51987	90.83948	656.35425	-462.93939	-77.29457	493.33868	464.44702	74.30949	483.04245	464.74640	
5	0.040	-208.89398	82.36422	-314.39468	224.71677	84.80058	-325.26691	-203.43390	-27.44259	298.65402	181.84436	-27.54219	291.92874	17.81288	1262.44141	-249.02617	-68.70147	657.86182	-465.53534	90.76092	656.44360	-462.92615	-77.33109	493.31113	464.42441	74.40402	483.05008	464.75113	
6	0.050	-208.90288	82.38422	-314.41135	224.78452	84.76466	-325.29501	-203.68689	-27.66553	299.04202	181.74519	-27.60012	291.87134	17.90376	1262.49304	-249.02736	-68.65692	657.86749	-465.54550	90.84435	656.43707	-462.93091	-77.31464	493.32373	464.42654	74.42458	483.05563	464.72952	
7	0.060	-208.88742	82.37012	-314.39081	224.97359	84.90283	-325.19254	-203.87651	-27.15728	299.31451	181.71452	-27.58494	291.82675	18.02886	1262.48828	-249.04620	-68.60019	657.87292	-465.54553	90.98889	656.41425	-463.18039	-77.26940	493.30005	464.42905	74.48192	483.05344	464.71359	
8	0.070	-208.90428	82.37809	-314.40424	224.77161	84.88268	-325.27872	-203.69991	-27.67378	298.97647	181.77992	-27.56465	291.89609	18.09182	1262.48352	-249.01711	-68.57886	657.87122	-465.55560	90.94331	656.45612	-463.13364	-77.24845	493.30096	464.42767	74.48681	483.04395	464.71756	
9	0.080	-208.89926	82.37752	-314.40948	224.74480	84.80180	-325.29199	-203.89392	-27.20259	299.37302	181.82187	-27.57142	291.91800	18.22617	1262.47961	-249.03790	-68.57297	657.88910	-465.56601	90.99065	656.39575	-462.90649	-77.20228	493.28482	464.39435	74.47450	482.97989	464.68433	
10	0.090	-208.89397	82.37446	-314.39844	224.73653	84.70966	-325.27643	-203.84023	-27.00844	298.85144	181.78937	-27.62716	291.92551	18.03111	1262.51514	-249.13091	-68.53606	657.87402	-465.54660	91.08939	656.43005	-463.13013	-77.23981	493.28085	464.43875	74.45875	482.98077	464.71118	
11	0.100	-208.85809	82.35479	-314.39404	224.77000	84.68606	-325.30463	-203.87912	-27.20102	299.35822	181.86629	-27.55558	291.96753	18.29181	1262.43860	-249.06383	-68.54065	657.87628	-465.55118	91.01849	656.40369	-462.91071	-77.20128	493.28375	464.44061	74.52470	482.94287	464.71332	
12	0.110	-208.89729	82.41033	-314.40140	224.89452	84.78981	-325.22781	-203.46082	-27.47937	298.65222	181.70110	-27.64348	291.86072	18.35893	1262.47961	-249.03603	-68.47948	657.87067	-465.55148	91.09019	656.42889	-463.16800	-77.23164	493.27463	464.46622	74.51417	482.97455	464.72366	
13	0.120	-208.89774	82.42093	-314.40488	225.01181	84.86131	-325.21121	-203.81297	-26.96458	298.81656	181.86435	-27.54997	291.86667	18.45963	1262.44189	-249.03761	-68.47000	657.87506	-465.54205	91.07368	656.43304	-462.93668	-77.18825	493.24884	464.44846	74.57197	482.94211	464.70453	
14	0.130	-208.89975	82.42290	-314.40970	224.81578	84.75574	-325.24988	-203.43881	-27.41548	298.65775	181.82611	-27.53087	291.88004	18.43225	1262.47754	-248.98775	-68.43445	657.85840	-465.54242	91.11785	656.40814	-462.90628	-77.19662	493.25699	464.42786	74.52323	482.91348	464.70392	
15	0.140	-208.90581	82.40000	-314.40369	224.86153	84.74323	-325.27463	-203.44269	-27.45895	298.67374	181.77383	-27.61061	291.89035	18.47390	1262.47241	-249.00545	-68.41232	657.86060	-465.53674	91.15239	656.47797	-462.87756	-77.17117	493.21555	464.42102	74.56465	482.87109	464.71826	
16	0.150	-208.87669	82.41861	-314.43182	224.80779	84.74915	-325.25253	-203.82077	-27.19887	299.38968	181.81409	-27.62442	291.93021	18.56002	1262.44446	-248.96733	-68.37603	657.84869	-465.54016	91.12691	656.44281	-462.88660	-77.18654	493.20651	464.46674	74.53407	482.87299	464.74066	
17	0.160	-208.83949	82.39487	-314.40833	224.82280	84.74137	-325.25714	-203.43594	-27.48456	298.66559	181.74228	-27.63491	291.90103	18.58650	1262.44495	-248.96326	-68.36972	657.85364	-465.48923	91.15858	656.41956	-462.88663	-77.14358	493.22372	464.47144	74.59155	482.85828	464.73151	
18	0.170	-208.86803	82.40937	-314.39838	224.96445	84.78217	-325.21194	-203.67953	-27.68114	298.97360	181.85214	-27.56230	291.94980	18.63573	1262.47473	-248.92073	-68.38177	657.84399	-465.47501	90.45731	656.28418	-462.65842	-77.16741	493.19696	464.47925	74.56371	482.86237	464.74683	
19	0.180	-208.86938	82.42488	-314.39230	224.94472	84.76598	-325.20795	-203.84351	-27.18732	299.38977	181.72473	-27.61200	291.90408	18.70170	1262.44238	-248.92809	-68.36322	657.83966	-465.46490	90.44676	656.30591	-462.70004	-77.12545	493.21259	464.46198	74.55769	482.84851	464.75027	
20	0.190	-208.88225	82.43427	-314.41470	224.67001	84.59281	-325.32803	-203.84238	-26.96023	298.83182	181.70438	-27.67002	291.88037	18.67325	1262.44177	-248.91527	-68.33822	657.87561	-465.47891	90.45448	656.34509	-462.66754	-77.10752	493.22003	464.46335	74.39651	482.92679	464.79892	
21	0.200	-208.88898	82.44451	-314.38776	224.65865	84.58680	-325.32291	-203.69968	-27.68954	299.02475	181.71590	-27.71469	291.88647	18.51718	1262.50330	-248.99341	-68.30735	657.89227	-465.48068	91.21223	656.48761	-462.84940	-77.10453	493.16791	464.49692	74.35450	482.92603	464.80859	
22	0.210	-208.88264	82.42432	-314.40067	224.61694	84.56871	-325.36664	-203.83801	-26.97840	298.85245	181.73216	-27.67218	291.93906	18.52008	1262.51428	-248.97382	-68.32246	657.84137	-465.43976	91.19071	656.48285	-462.81989	-77.13509	493.16379	464.48288	74.54508	482.77911	464.76755	
23	0.220	-208.89497	82.44693	-314.38690	224.81894	84.71094	-325.28830	-203.90100	-27.21377	299.36533	181.70378	-27.65525	291.87683	18.67031	1262.46777	-248.88435	-68.32685	657.86377	-465.40353	91.18025	656.47607	-462.79248	-77.08353	493.13675	464.50064	74.41459	482.91168	464.82278	
24	0.230	-208.89246	82.47869	-314.40463	225.05498	84.85075	-325.15317	-203.85875	-27.17125	299.32492	181.82849	-27.59513	291.85092	18.72647	1262.47803	-248.88843	-68.30880	657.81873	-465.37927	91.30359	656.48438	-462.77878	-77.14754	493.12457	464.48163	74.61996	482.78510	464.73184	
25	0.240	-208.86227	82.46730	-314.40640	224.87856	84.77322	-325.22754	-203.86604	-27.20854	299.37341	181.66560	-27.67377	291.87408	18.46891	1262.54041	-248.96425	-68.28259	657.81995	-465.36929	91.28024	656.50018	-462.75342	-77.15417	493.17392	464.49854	74.43462	482.92575	464.82114	
26	0.250	-208.88344	82.45798	-314.40808	224.84837	84.75632	-325.23679	-203.65266	-27.70869	299.00317	181.75305	-27.60648	291.91095	18.67603	1262.45911	-248.87199	-68.28663	657.83179	-465.36819	91.18923	656.49316	-462.79807	-77.06886	493.16428	464.51404	74.37864	482.89728	464.81671	
27	0.260	-208.86317	82.46107	-314.42743	224.76379	84.71172	-325.25500	-203.87451	-27.19280	299.39688	181.69302	-27.69481	291.88907	18.48029	1262.49500	-248.95345	-68.27821	657.81873	-465.38562	91.25834	656.50037	-462.72153	-77.09627	493.17801	464.51822	74.41950	482.88663	464.78778	
28	0.270	-208.88135	82.49961	-314.43570	224.76617	84.66775	-325.33456	-203.41605	-27.47367	298.66071	181.77235	-27.60041	291.84296	18.55987	1262.50452	-248.90028	-68.27205	657.81714	-465.34833	91.30087	656.49750	-462.73849	-77.11580	493.16891	464.51578	74.36527	482.89706	464.81293	
29	0.280	-208.88426	82.48927	-314.41232	224.87637	84.77161	-325.23578	-203.91226	-27.18828	299.36188	181.77335	-27.58563	291.87360	18.57986	1262.53516	-248.86681	-68.25445	657.80176	-465.32315	91.16256	656.55225	-462.74997	-77.14053	493.14645	464.50818	74.41956	482.90332	464.81091	
30	0.290	-208.90604	82.46847	-314.41537	225.01297	84.83290	-325.15897	-203.38118	-27.44641	298.64182	181.82304	-27.58424	291.88065	18.60323	1262.53601	-248.84465	-68.25860	657.84094	-465.36343	91.32997	656.52393	-462.71466	-77.08353	493.12640	464.51312	74.43594	482.88596	464.82169	
31	0.300	-208.88019	82.49347	-314.39001	224.77254	84.67952	-325.32495	-203.79007	-26.97913	298.84558	181.75316	-27.63313	291.89355	18.59732	1262.49609	-248.86053	-68.30875	657.85883	-465.37308	91.28389	656.47742	-462.72104	-77.08589	493.13876	464.50650	74.40372	482.88065	464.81079	
32	0.310	-208.86018	82.44307	-314.40594	224.75423	84.65640	-325.29642	-203.89111	-27.22690	299.34702	181.72670	-27.67537	291.88470	18.57388	1262.53162	-248.83749	-68.25344	657.82208	-465.35294	91.26916	656.50574	-462.71539	-77.08859	493.09460	464.53525	74.39574	482.86673	464.84528	
33	0.320	-208.89836	82.49639	-314.37640	224.67058	84.69238	-325.28909	-203.80661	-27.01467	298.87244	181.76660	-27.68987	291.95743	18.47495	1262.51111	-248.85706	-68.18246	657.69092	-465.36029	91.31480	656.52063	-462.68274	-77.09492	493.09583	464.55453	74.38889	482.86826	464.89865	
34	0.330	-208.92076	82.50197	-314.42587	224.80000	84.75401	-325.23645	-203.64923	-27.70850	299.02814	181.85603	-27.58060	291.92572	18.62676	1262.50964	-248.85739	-68.25992	657.81744	-465.34589	91.24924	656.48981	-462.72369	-77.07172	493.12094	464.52213	74.40449	482.90549	464.84714	
35	0.340	-208.88210	82.47434	-314.41324	224.93810	84.79449	-325.19684	-203.81232	-26.97362	298.82993	181.73247	-27.61871	291.85742	18.65463	1262.54016	-248.84268	-68.26123	657.81750	-465.36984	91.15707	656.50665	-462.75385	-77.11554	493.13416	464.51743	74.40871	482.88763	464.82712	
36	0.350	-208.86664	82.44863	-314.41907	225.04620	84.81961	-325.19574	-203.89307	-27.17869	299.33450	181.82651	-27.56202	291.89111	18.59843	1262.54114	-248.90198	-68.26688	657.83502	-465.38205	91.22631	656.50708	-462.70441	-77.09379	493.15298	464.51285	74.41713	482.90637	464.83530	
37	0.360	-208.85713	82.47259	-314.41296	224.84166	84.66975	-325.25662	-203.77942	-27.02488	298.85291	181.78334	-27.58016	291.92404	18.58827	1262.49890	-248.88994	-68.22308	657.82495	-465.37283	91.17919	656.50409	-462.73285	-77.10251	493.16916	464.52310	74.42010	482.90738	464.88071	
38	0.370	-208.87291	82.44025	-314.39871	224.78360	84.71399	-325.26715	-203.63293	-27.68759	299.06192	181.79227	-27.60805	291.94330	18.56819	1262.51306	-248.87077	-68.27397	657.84186	-465.38205	91.29642	656.50171	-462.72055	-77.05679	493.14563	464.53131	74.61545	482.75842	464.80069	
